<?xml version="1.0" encoding="utf-8"?>
<!-- Generator: Adobe Illustrator 19.0.0, SVG Export Plug-In . SVG Version: 6.00 Build 0)  -->
<svg version="1.1" id="Layer_1" xmlns="http://www.w3.org/2000/svg" xmlns:xlink="http://www.w3.org/1999/xlink" x="0px" y="0px"
	 viewBox="-471 473 56 56" style="enable-background:new -471 473 56 56;" xml:space="preserve">
<style type="text/css">
	.st0{fill:none;}
	.st1{filter:url(#uil-ring-shadow);}
	.st2{fill:#D60BB6;}
</style>
<filter  height="300%" width="300%" id="uil-ring-shadow" x="-100%" y="-100%">
	<feOffset  dx="0" dy="0" in="SourceGraphic" result="offOut"></feOffset>
	<feGaussianBlur  in="offOut" stdDeviation="0" result="blurOut"></feGaussianBlur>
	<feBlend  mode="normal" in="SourceGraphic" in2="blurOut"></feBlend>
</filter>
<rect x="-471" y="473" class="st0" width="56" height="56"/>
<g class="st1">
	<path class="st2" d="M-465.4,501c0,0,0,0.3,0.1,0.8c0,0.3,0.1,0.6,0.1,1c0,0.2,0.1,0.4,0.1,0.6c0.1,0.2,0.1,0.4,0.1,0.7
		c0.1,0.4,0.2,1,0.3,1.6c0.2,0.6,0.3,1.2,0.5,1.8s0.5,1.3,0.8,2s0.7,1.3,1,2.1c0.2,0.3,0.4,0.7,0.7,1.1c0.2,0.3,0.4,0.7,0.7,1.1
		c0.6,0.7,1.1,1.5,1.7,2.1c1.2,1.4,2.8,2.6,4.4,3.8c1.7,1.1,3.6,1.9,5.7,2.6c2,0.6,4.2,0.8,6.3,0.9c2.2-0.1,4.3-0.3,6.3-0.9
		c2-0.7,3.9-1.5,5.6-2.6s3.2-2.4,4.4-3.8c0.7-0.7,1.2-1.4,1.7-2.1c0.3-0.3,0.5-0.7,0.7-1.1s0.4-0.7,0.7-1.1c0.3-0.7,0.7-1.4,1-2.1
		s0.6-1.3,0.8-2c0.2-0.6,0.3-1.2,0.5-1.8c0.1-0.6,0.2-1.1,0.3-1.6c0.1-0.2,0.1-0.4,0.1-0.7c0-0.2,0.1-0.4,0.1-0.6
		c0.1-0.4,0.1-0.7,0.1-1c0.1-0.5,0.1-0.8,0.1-0.8s0,0.3,0,0.8c0,0.3,0,0.6,0,1c0,0.2,0,0.4,0,0.6s-0.1,0.4-0.1,0.7
		c-0.1,0.5-0.1,1-0.2,1.6s-0.3,1.2-0.4,1.8c-0.2,0.7-0.4,1.3-0.7,2.1c-0.1,0.4-0.3,0.7-0.4,1.1c-0.2,0.4-0.3,0.7-0.5,1.1
		s-0.4,0.7-0.6,1.1c-0.2,0.4-0.4,0.8-0.7,1.1c-0.6,0.7-1.1,1.5-1.7,2.2c-1.2,1.5-2.8,2.8-4.5,4c-0.4,0.3-0.9,0.6-1.3,0.8
		c-0.4,0.3-1,0.5-1.5,0.7l-0.8,0.4l-0.8,0.3c-0.5,0.2-1,0.4-1.6,0.6c-2.1,0.6-4.4,1-6.6,1l-1.7-0.1c-0.6,0-1.1-0.1-1.7-0.2l-0.8-0.1
		l-0.4-0.1l-0.4-0.1c-0.6-0.2-1.1-0.3-1.6-0.4c-0.5-0.2-1.1-0.4-1.6-0.6l-0.8-0.3l-0.7-0.3c-0.5-0.2-1-0.4-1.5-0.7
		c-0.4-0.3-0.9-0.6-1.3-0.8c-1.7-1.2-3.3-2.5-4.5-4c-0.7-0.7-1.2-1.5-1.7-2.2c-0.3-0.3-0.4-0.8-0.7-1.1c-0.2-0.4-0.4-0.7-0.6-1.1
		s-0.3-0.7-0.5-1.1s-0.3-0.7-0.4-1.1c-0.2-0.7-0.5-1.4-0.7-2.1s-0.3-1.3-0.4-1.8s-0.2-1.1-0.2-1.6c-0.1-0.2-0.1-0.4-0.1-0.7
		s0-0.4,0-0.6c0-0.4,0-0.7,0-1C-465.4,501.3-465.4,501-465.4,501z"/>
	
		<animateTransform  type="rotate" fill="remove" repeatCount="indefinite" from="0 50 50" dur="2s" to="360 50 50" additive="replace" accumulate="none" calcMode="linear" restart="always" attributeName="transform">
		</animateTransform>
</g>
</svg>
